<svg width="30" height="30" viewBox="0 0 30 30" fill="none" xmlns="http://www.w3.org/2000/svg">
<path d="M10.6785 0.714222C11.8927 0.714222 12.8571 1.67857 12.8571 2.89279V10.6785C12.8571 11.8927 11.8927 12.8571 10.6785 12.8571H2.89279C1.67857 12.8571 0.714222 11.8927 0.714222 10.6785V2.89279C0.714222 1.67857 1.67857 0.714222 2.89279 0.714222H10.6785ZM10.6785 0H2.89279C1.28571 0 0 1.28571 0 2.89279V10.6785C0 12.2856 1.28571 13.5713 2.89279 13.5713H10.6785C12.2856 13.5713 13.5713 12.2856 13.5713 10.6785L13.5716 2.89279C13.5716 1.28571 12.2858 0 10.6785 0H10.6785Z" fill="#57867D"/>
<path d="M10.6785 17.1427C11.8927 17.1427 12.8571 18.107 12.8571 19.3213V27.107C12.8571 28.3212 11.8927 29.2856 10.6785 29.2856H2.89279C1.67857 29.2856 0.714222 28.3212 0.714222 27.107V19.3213C0.714222 18.107 1.67857 17.1427 2.89279 17.1427H10.6785ZM10.6785 16.4282H2.89279C1.28571 16.4282 0 17.7139 0 19.3213V27.107C0 28.7141 1.28571 29.9998 2.89279 29.9998H10.6785C12.2856 29.9998 13.5713 28.7141 13.5713 27.107L13.5716 19.3213C13.5716 17.7139 12.2858 16.4282 10.6785 16.4282H10.6785Z" fill="#57867D"/>
<path d="M27.1072 0.714222C28.3214 0.714222 29.2858 1.67857 29.2858 2.89279V10.6785C29.2858 11.8927 28.3214 12.8571 27.1072 12.8571H19.3215C18.1073 12.8571 17.1429 11.8927 17.1429 10.6785V2.89279C17.1429 1.67857 18.1073 0.714222 19.3215 0.714222H27.1072ZM27.1072 0H19.3215C17.7144 0 16.4287 1.28571 16.4287 2.89279V10.6785C16.4287 12.2856 17.7144 13.5713 19.3215 13.5713H27.1072C28.7143 13.5713 30 12.2856 30 10.6785V2.89279C30 1.28571 28.7143 0 27.1072 0Z" fill="#57867D"/>
<path d="M23.2144 17.1427C26.5716 17.1427 29.2858 19.8569 29.2858 23.2141C29.2858 26.5712 26.5716 29.2854 23.2144 29.2854C19.8573 29.2854 17.1431 26.5712 17.1431 23.2141C17.1431 19.8569 19.8573 17.1427 23.2144 17.1427ZM23.2144 16.4282C19.4644 16.4282 16.4287 19.4641 16.4287 23.2139C16.4287 26.964 19.4646 29.9997 23.2144 29.9997C26.9645 29.9997 30.0001 26.9638 30.0001 23.2139C30.0001 19.4641 26.9646 16.4282 23.2144 16.4282Z" fill="#57867D"/>
</svg>
