<svg width="30" height="31" viewBox="0 0 30 31" fill="none" xmlns="http://www.w3.org/2000/svg">
<path d="M10.6785 1.21422C11.8927 1.21422 12.8571 2.17857 12.8571 3.39279V11.1785C12.8571 12.3927 11.8927 13.3571 10.6785 13.3571H2.89279C1.67857 13.3571 0.714222 12.3927 0.714222 11.1785V3.39279C0.714222 2.17857 1.67857 1.21422 2.89279 1.21422H10.6785ZM10.6785 0.5H2.89279C1.28571 0.5 0 1.78571 0 3.39279V11.1785C0 12.7856 1.28571 14.0713 2.89279 14.0713H10.6785C12.2856 14.0713 13.5713 12.7856 13.5713 11.1785L13.5716 3.39279C13.5716 1.78571 12.2858 0.5 10.6785 0.5H10.6785Z" fill="#74E779"/>
<path d="M10.6785 17.6427C11.8927 17.6427 12.8571 18.607 12.8571 19.8213V27.607C12.8571 28.8212 11.8927 29.7856 10.6785 29.7856H2.89279C1.67857 29.7856 0.714222 28.8212 0.714222 27.607V19.8213C0.714222 18.607 1.67857 17.6427 2.89279 17.6427H10.6785ZM10.6785 16.9282H2.89279C1.28571 16.9282 0 18.2139 0 19.8213V27.607C0 29.2141 1.28571 30.4998 2.89279 30.4998H10.6785C12.2856 30.4998 13.5713 29.2141 13.5713 27.607L13.5716 19.8213C13.5716 18.2139 12.2858 16.9282 10.6785 16.9282H10.6785Z" fill="#74E779"/>
<path d="M27.1072 1.21422C28.3214 1.21422 29.2858 2.17857 29.2858 3.39279V11.1785C29.2858 12.3927 28.3214 13.3571 27.1072 13.3571H19.3215C18.1073 13.3571 17.1429 12.3927 17.1429 11.1785V3.39279C17.1429 2.17857 18.1073 1.21422 19.3215 1.21422H27.1072ZM27.1072 0.5H19.3215C17.7144 0.5 16.4287 1.78571 16.4287 3.39279V11.1785C16.4287 12.7856 17.7144 14.0713 19.3215 14.0713H27.1072C28.7143 14.0713 30 12.7856 30 11.1785V3.39279C30 1.78571 28.7143 0.5 27.1072 0.5Z" fill="#74E779"/>
<path d="M23.2144 17.6427C26.5716 17.6427 29.2858 20.3569 29.2858 23.7141C29.2858 27.0712 26.5716 29.7854 23.2144 29.7854C19.8573 29.7854 17.1431 27.0712 17.1431 23.7141C17.1431 20.3569 19.8573 17.6427 23.2144 17.6427ZM23.2144 16.9282C19.4644 16.9282 16.4287 19.9641 16.4287 23.7139C16.4287 27.464 19.4646 30.4997 23.2144 30.4997C26.9645 30.4997 30.0001 27.4638 30.0001 23.7139C30.0001 19.9641 26.9646 16.9282 23.2144 16.9282Z" fill="#74E779"/>
</svg>
