<svg width="32" height="24" viewBox="0 0 32 24" fill="none" xmlns="http://www.w3.org/2000/svg">
<path d="M20.2772 0.0490262C20.1459 -0.022506 19.9884 -0.0150644 19.8646 0.0667886L8.83272 7.31095H4.89474C2.1958 7.31095 0 9.50675 0 12.2057C0 14.9046 2.1958 17.0995 4.89474 17.0995H8.84016L19.8751 23.8674C19.9401 23.9073 20.0124 23.9272 20.0861 23.9272C20.1542 23.9272 20.2214 23.9104 20.2836 23.8758C20.4106 23.8043 20.4896 23.6699 20.4896 23.5239L20.4893 0.403964C20.4893 0.255861 20.4084 0.119285 20.2771 0.0489573L20.2772 0.0490262ZM0.806622 12.2054C0.806622 9.95077 2.64024 8.11715 4.89485 8.11715H8.55029V16.2922L4.89485 16.2925C2.64024 16.2925 0.806622 14.4589 0.806622 12.2052V12.2054ZM19.683 22.8034L9.35717 16.4699L9.35693 7.93102L19.6827 1.15141L19.683 22.8034Z" fill="white"/>
<line x1="22.6464" y1="15.6464" x2="30.6464" y2="7.64645" stroke="white"/>
<line x1="23.3536" y1="7.64645" x2="31.3536" y2="15.6464" stroke="white"/>
</svg>
