<svg width="32" height="24" viewBox="0 0 32 24" fill="none" xmlns="http://www.w3.org/2000/svg">
<path d="M20.2772 0.0490262C20.1459 -0.022506 19.9884 -0.0150644 19.8646 0.0667886L8.83272 7.31095H4.89474C2.1958 7.31095 0 9.50675 0 12.2057C0 14.9046 2.1958 17.0995 4.89474 17.0995H8.84016L19.8751 23.8674C19.9401 23.9073 20.0124 23.9272 20.0861 23.9272C20.1542 23.9272 20.2214 23.9104 20.2836 23.8758C20.4106 23.8043 20.4896 23.6699 20.4896 23.5239L20.4893 0.403964C20.4893 0.255861 20.4084 0.119285 20.2771 0.0489573L20.2772 0.0490262ZM0.806622 12.2054C0.806622 9.95077 2.64024 8.11715 4.89485 8.11715H8.55029V16.2922L4.89485 16.2925C2.64024 16.2925 0.806622 14.4589 0.806622 12.2052V12.2054ZM19.683 22.8034L9.35717 16.4699L9.35693 7.93102L19.6827 1.15141L19.683 22.8034Z" fill="white"/>
<path d="M26.3268 11.964C26.3268 9.71246 24.8976 7.72669 22.77 7.02102C22.559 6.95285 22.33 7.06615 22.2596 7.27738C22.1903 7.48956 22.3048 7.71736 22.516 7.78769C24.3126 8.38201 25.5203 10.0613 25.5203 11.964C25.5203 13.8668 24.3127 15.546 22.5158 16.1404C22.3048 16.2107 22.1903 16.4387 22.2594 16.6507C22.316 16.8197 22.4738 16.927 22.6427 16.927C22.6847 16.927 22.7277 16.9207 22.7697 16.907C24.8976 16.2014 26.3268 14.2155 26.3268 11.9641V11.964Z" fill="white"/>
<path d="M24.272 2.07691C24.061 2.00874 23.832 2.12227 23.7617 2.33326C23.6923 2.54545 23.8068 2.77325 24.0181 2.84357C27.9423 4.14266 30.5783 7.80867 30.5783 11.9644C30.5783 16.1201 27.9425 19.7861 24.0181 21.0852C23.8071 21.1555 23.6926 21.3835 23.7617 21.5955C23.8184 21.7645 23.9761 21.8718 24.145 21.8718C24.1871 21.8718 24.23 21.8655 24.272 21.8518C28.5266 20.4414 31.3847 16.4686 31.3847 11.9648C31.3847 7.46091 28.5263 3.48796 24.272 2.07772V2.07691Z" fill="white"/>
</svg>
